<?xml version="1.0" encoding="UTF-8"?>
<svg id="bananasvg" xmlns="http://www.w3.org/2000/svg" viewBox="0 0 430 234.5">
  <defs>
    <style>
      .cls-1 {
        fill: #ffe600;
        stroke-width: 0px;
      }

      .cls-2 {
        fill: #ffec5f;
        stroke: #fa0;
        stroke-miterlimit: 10;
      }

      #bananasvg:hover #banana {
        fill: brown;
      }

      #text-layer {
          transition: all 0.5s ease;
          transform-origin: center;
      }

      #bananasvg:hover #text-layer {
          fill: black;
          transform: rotate(360deg);
      }
    </style>

    <script>const vectorGraphic = document.querySelector('#bananasvg');

      function logThisId(){
        console.log(this);
        console.log('BANANA WOAH THE BEST FLAVOUR???? PROBABLY', this.id)
      }

      vectorGraphic.addEventListener('click', logThisId);
    </script>

    
  </defs>
  <g id="fruit">
    <path id="banana" class="cls-2" d="m2.48,37.48s.07.1.1.16c0,0,11.04,32.36,13.29,35.48,170.81,237.75,386.61-19.64,386.61-19.64l4.5-26,19.5-11-11-15-25.5,20-17.5-2C173.14,226,13.48,25.82,13.48,25.82l-11,11.66Z"/>
  </g>
  <g id="text-layer">
    <g id="text">
      <g id="bananatext">
        <path class="cls-1" d="m68.22,201.12c4.44-23.01-23.05-41.4-19.84-64.63,5.88,2.99,9.89,5.18,18.83,10.01,3.78,2.04,7.06,4.13,9.68,6.17,2.62,2.04,4.84,4.56,7.01,7.84s3.65,6.59,4.6,10.14c.89,3.34.95,5.95.07,7.76-.87,1.81-2.63,2.44-5.35,1.75,4.16,2.72,7.92,6.1,10.96,9.99,3.04,3.88,5.14,7.73,6.14,11.45,1.26,4.66.49,7.65-1.85,9.26-2.34,1.62-6.26,1.23-10.95-.75-7.81-3.3-11.68-5.1-19.3-8.98Zm-5.5-34.78c4.11,2.11,6.33,3.25,10.97,5.59,2.37,1.2,3.87,1.18,4.58.03s.57-3.1-.32-5.79c-.99-2.98-2.38-5.47-4.45-7.68-2.07-2.22-4.23-3.92-6.52-5.15-4.94-2.64-7.27-3.9-11.48-6.14,1.2,6.37,3.23,10.64,7.22,19.14Zm13.06,31.13c3.99,1.88,6.04,2.82,10.22,4.65,2.21.97,3.87,1,4.83.03.96-.97,1.07-2.8.1-5.67-.93-2.74-2.56-5.43-4.8-8-2.23-2.57-4.64-4.49-7.03-5.64-4.66-2.24-6.9-3.35-11.1-5.43,4.2,8.86,6.41,13.37,7.78,20.07Z"/>
        <path class="cls-1" d="m148.78,228.49c-3.62-.67-5.42-1.04-9.02-1.82-.34-3.78-.72-5.86-1.96-10.4-7.41-1.97-11.25-3.17-18.86-5.8-1.09,4.3-1.69,6.41-4.32,9.55-2.82-.88-4.23-1.34-7.04-2.29,5.39-15.45,4.21-29.44,13.98-42.99,5.99,2.86,8.94,4.22,14.53,6.62,3.83,15.83,10.6,30.88,12.7,47.13Zm-13.23-19.43c-3.15-9.27-5.88-14.84-9.2-24.47-4.2,6.29-4.62,10.73-6.16,19.14,6.23,2.34,9.34,3.44,15.36,5.33Z"/>
        <path class="cls-1" d="m193.74,233.33c-3.33-.1-4.99-.18-8.32-.38-5.5-8.74-11.14-17.74-15.48-27.13-.2-.42-.51-1.09-.94-2.02-.19-.42-.48-1.07-.85-1.96-1,9.72-1.85,19.51-3.35,29.17-2.74-.36-4.11-.55-6.84-.97,2.07-13.17,3.99-26.36,6.06-39.53,3.2.48,4.68.67,7.5.94,3.48,9.74,5.66,14.61,12.18,24.65.14.21,1.11,1.74,3.06,4.59-1.19-9.39-2.79-19.33-2.14-28.83,1.64-.07,2.44-.12,4.02-.26.03,14.19,5.06,27.54,5.1,41.73Z"/>
        <path class="cls-1" d="m244.96,230.49c-3.64.52-5.46.75-9.1,1.16-2.08-3.66-3.74-5.67-7.22-9.78-6.88.74-10.26,1.03-16.99,1.38.01,4.22-.22,6.27-1.55,10.14-2.93.07-4.39.09-7.31.09,3.01-15.13.49-28.77.29-44.06,2.56-.5,3.87-.77,6.67-1.32,8.63,16.18,24.03,28.03,35.22,42.4Zm-21.87-14.94c-7-7.91-11.04-12.06-15.62-19.47.86,8.07,2.53,12.47,3.6,20.66,4.75-.37,7.13-.61,12.03-1.19Z"/>
        <path class="cls-1" d="m289.29,220.64c-3.22.98-4.83,1.44-8.07,2.33-10.91-8.9-19.62-19.06-31.23-27.28-.61-.37-1.61-.97-3-1.76-.62-.35-1.58-.9-2.89-1.62,5.7,11.77,11.62,23.45,16.86,35.44-2.72.54-4.08.8-6.81,1.27-6.21-15.94-18.49-28.76-24.17-44.9,4.28-1.3,6.9-2.31,12.76-4.82,13.27,3.18,25.45,10.02,33.78,21.02.2.26,1.74,2.22,4.1,5.88.22-14.52,2.4-30.45-1.69-44.62,5.55-2.93,8.4-4.46,14.13-7.58,4.22,22.19-8.68,44.59-3.75,66.63Z"/>
        <path class="cls-1" d="m337.7,201.12c-3.36,1.71-5.05,2.54-8.44,4.13-2.48-3.17-1.43-7.05,1.45-15.8-7.08,3.34-11.04,5.16-19.19,8.72-4.48,9.03-5.99,12.81-6.54,17.21-2.79,1.02-4.19,1.51-7,2.46,6.18-33.69,33.1-61.47,46.23-92.5,7.94-4.52,11.68-6.66,18.22-10.36,12.83,27.57-36.83,60.07-24.74,86.13Zm-1.55-26.14c5.61-13.88,12.45-28.07,13.94-43.16-9.91,17.29-20.78,34-30.62,51.33,7.09-3.42,10.51-5.11,16.68-8.17Z"/>
      </g>
    </g>
  </g>
</svg>