<?xml version="1.0" encoding="UTF-8"?>
<svg id="orangesvg" xmlns="http://www.w3.org/2000/svg" viewBox="0 0 356 366">
  <defs>
    <style>
      .cls-1, .cls-2, .cls-3 {
        stroke: #fbb03b;
        stroke-miterlimit: 10;
      }

      .cls-1, .cls-3 {
        fill: #ffcb48;
      }

      .cls-4, .cls-2 {
        fill: #fff;
      }

      .cls-4, .cls-5 {
        stroke-width: 0px;
      }

      .cls-3 {
        stroke-width: 5px;
      }

      .cls-5 {
        fill: #fbb03b;
      }

      #orange-vain {
        transition: 0.5s ease;
        transform-origin: center;
      }

      #orangesvg:hover #orange-base {
        fill: orange;
      }

      #orangesvg:hover #orange-vain {
        transform: rotate(360deg);
      }

      #text {
        transition: 0.5s ease;
      }

      #orangesvg:hover #text {
        transform: scale(120%);
      }


    </style>

    <script>const vectorGraphic = document.querySelector('#orangesvg');

      function logThisId(){
        console.log(this);
        console.log('Okay this is ACTUALY the best flavor I cant lie', this.id);
      }

      vectorGraphic.addEventListener('click', logThisId);
    </script>

  </defs>
  <g id="orangebase">
    <circle id="orange-base" class="cls-3" cx="177.23" cy="163.31" r="150.5"/>
  </g>
  <g id="orange-center">
    <circle id="orange-outer" class="cls-2" cx="177.23" cy="163.31" r="13.5"/>
  </g>
  <g id="orange-vain">
    <g>
      <g id="_Radial_Repeat_" data-name="&amp;lt;Radial Repeat&amp;gt;">
        <g>
          <line class="cls-5" x1="167.5" y1="172.18" x2="71.34" y2="269.33"/>
          <path class="cls-4" d="m167.5,172.18c-30.45,33.67-62.79,66.37-96.17,97.15,30.43-33.68,62.81-66.36,96.17-97.15h0Z"/>
        </g>
      </g>
      <g id="_Radial_Repeat_-2" data-name="&amp;lt;Radial Repeat&amp;gt;">
        <g>
          <line class="cls-5" x1="163.99" y1="162.31" x2="27.29" y2="163"/>
          <path class="cls-4" d="m163.99,162.31c-45.34,2.28-91.34,2.53-136.69.69,45.34-2.3,91.33-2.51,136.69-.69h0Z"/>
        </g>
      </g>
      <g id="_Radial_Repeat_-3" data-name="&amp;lt;Radial Repeat&amp;gt;">
        <g>
          <line class="cls-5" x1="168.48" y1="152.84" x2="71.34" y2="56.67"/>
          <path class="cls-4" d="m168.48,152.84c-33.67-30.45-66.37-62.79-97.15-96.17,33.68,30.43,66.36,62.81,97.15,96.17h0Z"/>
        </g>
      </g>
      <g id="_Radial_Repeat_-4" data-name="&amp;lt;Radial Repeat&amp;gt;">
        <g>
          <line class="cls-5" x1="178.36" y1="149.32" x2="177.67" y2="12.62"/>
          <path class="cls-4" d="m178.36,149.32c-2.28-45.34-2.53-91.34-.69-136.69,2.3,45.34,2.51,91.33.69,136.69h0Z"/>
        </g>
      </g>
      <g id="_Radial_Repeat_-5" data-name="&amp;lt;Radial Repeat&amp;gt;">
        <g>
          <line class="cls-5" x1="187.83" y1="153.82" x2="284" y2="56.67"/>
          <path class="cls-4" d="m187.83,153.82c30.45-33.67,62.79-66.37,96.17-97.15-30.43,33.68-62.81,66.36-96.17,97.15h0Z"/>
        </g>
      </g>
      <g id="_Radial_Repeat_-6" data-name="&amp;lt;Radial Repeat&amp;gt;">
        <g>
          <line class="cls-5" x1="191.35" y1="163.69" x2="328.04" y2="163"/>
          <path class="cls-4" d="m191.35,163.69c45.34-2.28,91.34-2.53,136.69-.69-45.34,2.3-91.33,2.51-136.69.69h0Z"/>
        </g>
      </g>
      <g id="_Radial_Repeat_-7" data-name="&amp;lt;Radial Repeat&amp;gt;">
        <g>
          <line class="cls-5" x1="186.85" y1="173.16" x2="284" y2="269.33"/>
          <path class="cls-4" d="m186.85,173.16c33.67,30.45,66.37,62.79,97.15,96.17-33.68-30.43-66.36-62.81-97.15-96.17h0Z"/>
        </g>
      </g>
      <g id="_Radial_Repeat_-8" data-name="&amp;lt;Radial Repeat&amp;gt;">
        <g>
          <line class="cls-5" x1="176.97" y1="176.68" x2="177.67" y2="313.38"/>
          <path class="cls-4" d="m176.97,176.68c2.28,45.34,2.53,91.34.69,136.69-2.3-45.34-2.51-91.33-.69-136.69h0Z"/>
        </g>
      </g>
    </g>
  </g>
  <g id="text">
    <g id="orange-text">
      <g>
        <path class="cls-1" d="m18.26,336.69c-10.53-2.74-16.96-7.4-14.93-11.67,3.75-7.89,18.56-11.43,26.34-13.95,11.52-3.73,23.84-6.72,35.92-9.18,8.76-1.78,13.14-1.71,18.13.37,5.02,2.09,8.28,5.35,7.66,9.9-.62,4.56-5,9.35-13.21,14.49-8.26,5.17-19.25,9.38-28.82,11.05-10.19,1.78-20.94,1.63-31.09-1.01Zm5.7-5.02c4.95,1.3,10.7,1.45,17.32.45,6.63-1,14.39-3.93,24.19-8.68,7.97-3.87,12.78-7.22,14.81-10.04,2.03-2.82.9-5.09-2.25-6.14-11.63-3.86-28.36,4.15-39.92,7.92-11.26,3.68-18.24,7.09-20.21,9.94s.47,5.08,6.05,6.56Z"/>
        <path class="cls-1" d="m131.87,356.87c-3.84-.59-6.14-.94-11.23-1.71-3.48-6.96-4.81-10.43-5.57-17.28-6.42-1.1-9.89-1.71-16.99-3.04-5.48,6-8.39,8.99-9.87,15.2-6.4-1.06-9.71-1.62-16.38-2.8,8.52-14.96,27.35-20.67,34.88-36.16,6.98,2.09,10.51,3,17.52,4.56,4.88,1.08,8.35,2.78,10.29,5.28,1.94,2.5,2.6,5.4,2.06,8.73-.81,4.95-3.67,8-10.89,8.75,1.75,7.37,3.66,11.1,6.19,18.46Zm-28.9-27.29c5.48,1.12,8.18,1.64,13.28,2.58,3.69.68,6.54.63,8.54-.12,2-.75,3.18-2.05,3.7-3.88.48-1.68.14-3.16-.93-4.46s-2.78-2.19-5.23-2.72c-4.16-.9-6.29-1.39-10.59-2.46-2.58,4.47-4.69,6.66-8.77,11.06Z"/>
        <path class="cls-1" d="m178.07,360.45c-3.68.02-5.52,0-9.2-.1-1.42-3.76-2.11-5.64-3.43-9.42-7.1-.29-10.65-.56-17.73-1.31-1.84,3.54-2.78,5.31-4.72,8.82-2.92-.35-4.38-.55-7.3-.98,6.91-12.11,13.49-24.31,19.27-37.02,3.64.33,5.47.46,9.11.65,3.97,13.4,8.81,26.4,13.99,39.37Zm-14.58-15.25c-2.29-7.09-3.35-10.65-5.29-17.78-2.98,6.77-4.55,10.13-7.87,16.8,5.26.52,7.89.72,13.16.98Z"/>
        <path class="cls-1" d="m219.76,357.14c-3.32.51-4.98.75-8.3,1.16-6.92-7.29-13.55-15.17-19.55-23.24-.28-.37-.73-.96-1.34-1.79-.27-.37-.7-.95-1.26-1.74.48,9.52.95,19.04,1.43,28.57-2.77.14-4.15.19-6.93.26-.33-13.01-.66-26.02-.99-39.03,3.28-.08,4.92-.15,8.19-.35,6.3,8.84,9.72,13.17,17.09,21.55.15.17,1.26,1.46,3.4,3.81-1.41-10.79-2.11-16.18-3.52-26.97,2.32-.3,3.48-.47,5.8-.83,1.99,12.86,3.99,25.72,5.98,38.58Z"/>
        <path class="cls-1" d="m271.73,324.52c10,6.02,16.23,8.77,19.63,16.17-2.7.75-4.06,1.11-6.77,1.84-2.67-1.47-4.21-2.17-7.41-3.55-2.02,4.66-9.74,8.64-19.51,10.95-10.9,2.58-18.31,2.07-23.55-.98s-8.12-7.29-9.47-12.44c-1.43-5.45-.88-10.37,1.37-14.81,2.25-4.44,6.24-7.3,11.65-8.71,4.04-1.05,7.42-.88,11.38.36,3.96,1.23,8.17,3.03,12.74,5.44-2.72,1.33-4.14,1.98-7.03,3.27-5.92-3.5-10.12-4.79-14.99-3.53-3.11.8-5.18,2.45-6.33,5.03-1.15,2.58-.91,6.07,1.12,10.42,4.27,9.18,10.86,12.88,23.03,9.96,4.73-1.14,8.43-2.92,10.39-5.17,1.96-2.25,1.56-4.48-1.07-6.71-5.75,1.53-8.62,2.26-14.18,3.62-1.56-1.99-2.41-2.97-4.05-4.93,9.01-2.23,13.78-3.51,23.05-6.24Z"/>
        <path class="cls-1" d="m351.71,320.1c-13.92,6.62-28.65,11.1-43.32,15.69-12.97-13.97-35.04-14.82-47.07-29.62,10.15-3.77,15.16-5.94,24.71-10.81,1.49,1.98,2.82,2.85,6.13,4.45-6.76,3.53-10.54,5.22-18.39,8.33,5.09,3.19,8.8,4.54,16.18,7.26,7.94-2.89,11.71-4.4,18.16-7.41,4.75,1.25,7.26,1.85,12.04,3.1-7.02,3.17-11.25,4.79-20.21,7.92,7.66,2.79,11.57,4.18,16.92,7.45,9.58-3.33,19.19-6.57,28.35-10.98,3.53,1.66,4.95,2.56,6.5,4.63Z"/>
      </g>
    </g>
  </g>
</svg>