<?xml version="1.0" encoding="UTF-8"?>
<svg xmlns="http://www.w3.org/2000/svg" viewBox="0 0 456 397">
  <defs>
    <style>
      .cls-1 {
        fill: #8b00a3;
        stroke: #000;
        stroke-width: 4px;
      }

      .cls-1, .cls-2, .cls-3 {
        stroke-miterlimit: 10;
      }

      .cls-2 {
        fill: #874d6b;
        stroke: #8b00a3;
      }

      .cls-2, .cls-3 {
        stroke-width: 5px;
      }

      .cls-3 {
        fill: #8c2f5b;
        stroke: #8c2f5b;
      }
    </style>
  </defs>
  <g id="passionfruit">
    <line id="stem" class="cls-1" x1="172.27" y1="43.94" x2="143.27" y2="9.94"/>
    <circle id="passionfruit_base" class="cls-2" cx="227.77" cy="184.25" r="150.5"/>
  </g>
  <g id="text-laayer">
    <g id="teext">
      <g>
        <path class="cls-3" d="m11.59,343.26c-3.01-1.39-4.52-2.09-7.53-3.5,16.58-41.11,28.69-83.92,45.14-125.08,6.02,3.8,8.83,6.39,14.2,12.38,3.82,4.27,5.82,9.7,5.71,17.4-.12,7.71-1.64,16.59-5.13,26.3-3.28,9.11-6.93,18.79-13.22,26.57-4.87,6.03-9.21,7.95-12.82,5.59-3.85-2.52-5.79-3.73-9.72-5.98-5.4,15.49-10.69,31.03-16.63,46.32Zm24.7-69.6c3.23,2.17,4.82,3.33,7.96,5.79,2.05,1.61,4.28.9,6.64-2.02s4.58-7.45,6.6-13.36c1.83-5.34,2.84-10.09,3.11-14.48.27-4.38-.8-7.77-3.2-10.23-2.67-2.74-4.03-4.02-6.83-6.35-4.87,13.51-9.57,27.08-14.28,40.64Z"/>
        <path class="cls-3" d="m75.65,369.81c-3.31-1.17-4.97-1.77-8.27-2.99.39-5.86,1.01-10.13,2.64-19.88-6.12-3.54-9.16-5.36-15.27-8.95-4.68,9.58-6.94,14.04-10.48,19.69-2.61-1.09-3.91-1.64-6.51-2.75,18.12-30.62,28.3-65.81,47.69-95.65,2.54,4.44,3.8,6.72,6.3,11.3-4.85,32.97-14.38,65.88-16.11,99.24Zm-2.76-38.85c3.5-17.92,7.16-35.8,10.67-53.71-7.71,14.84-14.54,30.14-21.6,45.3,4.38,3.34,6.56,5.04,10.92,8.41Z"/>
        <path class="cls-3" d="m84.57,354.85c3.18.32,4.75.5,7.88.9-1.46,8.14,1.07,12.4,6.98,14.6,2.7,1,4.97,1.04,6.81.15s3.02-2.39,3.64-4.66c.45-1.65.56-3.37.34-5.2s-1.19-3.77-2.91-5.93c-2.56-3.24-3.79-4.99-6.18-8.71-2.04-3.19-3.32-6.29-3.88-9.14-.56-2.86-.63-6.4-.22-10.54.41-4.15,1.23-8.23,2.36-11.93,2.25-7.36,4.78-10.8,7.65-10.69s5.57,3.33,8.62,8.14c2.53,3.99,4.65,8.09,6.34,12.53,1.69,4.44,2.49,8.48,2.19,12.75-2.54-1.48-3.81-2.24-6.37-3.74.36-5.52-1.07-9.94-4.07-14.13-1.74-2.43-3.24-3.68-4.59-3.47s-2.43,1.63-3.21,4.28c-1.24,4.19-.68,9.27,2.02,14.23,1.98,3.64,2.99,5.38,5.1,8.66,3.19,4.98,5.12,9.2,5.66,13.12.54,3.92.41,7.5-.45,10.91-1.39,5.48-3.88,8.72-7.73,10.38-3.85,1.65-8.34,1.61-13.47.12-4.33-1.25-7.89-3.19-10.4-6.59-2.5-3.4-3.32-8.36-2.09-16.04Z"/>
        <path class="cls-3" d="m122.64,372.13c3.12.24,4.67.36,7.78.55-.14,4.93,2.96,7.75,9.15,8.8,2.83.48,5.1.28,6.8-.53,1.7-.81,2.67-1.97,2.91-3.47.18-1.09,0-2.15-.52-3.19-.52-1.04-1.84-2.02-3.92-3.07-3.1-1.57-4.61-2.47-7.54-4.5-2.51-1.74-4.23-3.55-5.21-5.23-.98-1.68-1.58-3.79-1.81-6.28-.23-2.49-.04-4.95.48-7.2,1.05-4.48,2.93-6.63,5.69-6.88s5.89,1.15,9.73,3.18c3.19,1.68,6.06,3.42,8.54,5.58s3.98,4.42,4.35,7.26c-2.97.25-4.46.39-7.34.24-.56-3.34-2.75-5.58-6.41-7.46-2.12-1.09-3.78-1.62-5.06-1.32-1.28.3-2.1,1.23-2.44,2.86-.55,2.58.77,5.58,4.23,8.17,2.53,1.9,3.84,2.74,6.51,4.22,4.05,2.25,6.82,4.06,8.03,6.29,1.21,2.23,1.66,4.54,1.3,6.96-.56,3.89-2.63,6.72-6.26,8.44-3.63,1.72-8.16,2.31-13.42,1.42-4.43-.75-8.18-2.18-11.13-4.49-2.95-2.32-4.48-5.59-4.45-10.35Z"/>
        <path class="cls-3" d="m174.51,391.35c-3.23-.35-4.85-.53-8.07-.93,1.64-13.23,3.29-26.46,4.93-39.69,2.97.37,4.45.54,7.43.86-1.43,13.25-2.85,26.51-4.28,39.76Z"/>
        <path class="cls-3" d="m204.27,394.27c-5.98-.28-10.53-2.6-13.52-6.82-2.99-4.22-4.17-9.27-3.67-15.11.5-5.8,2.6-10.5,6.18-14.16,3.58-3.66,7.97-5.32,13.3-5.08,5.37.25,9.54,2.32,12.63,6.29,3.09,3.98,4.66,8.88,4.61,14.76-.05,6.17-1.8,11.15-5.37,14.88s-8.33,5.5-14.16,5.23Zm.34-5.79c2.89.14,5.39-.85,7.45-2.93,2.06-2.08,3.14-5.96,3.29-11.6.12-4.59-.58-8.2-2.07-10.86-1.49-2.66-3.84-4.04-7.12-4.19-6.46-.3-10.02,4.4-10.7,14.32-.33,4.81.28,8.52,1.86,11.12,1.58,2.59,4.02,3.99,7.28,4.14Z"/>
        <path class="cls-3" d="m268.53,392.57c-3.15.26-4.72.37-7.87.58-6.21-8.02-12.19-16.3-17.87-24.71-.26-.38-.69-1-1.27-1.87-.26-.38-.66-.99-1.2-1.81.26,9.76.51,19.52.77,29.29-2.61.07-3.92.09-6.53.13-.17-13.33-.35-26.66-.52-39.99,3.3-.04,4.95-.08,8.25-.18,6.09,9.24,9.29,13.81,15.97,22.83.14.19,1.15,1.56,3.07,4.11-.76-11.12-1.14-16.68-1.9-27.8,2.35-.16,3.53-.25,5.87-.44,1.08,13.29,2.16,26.57,3.24,39.86Z"/>
        <path class="cls-3" d="m290.06,390.35c-3.32.42-4.98.61-8.3.97-1.43-13.25-2.87-26.51-4.3-39.76,10.43-1.13,15.98-1.12,25.88-3.8.38,2.39.58,3.6.99,6.04-7.07,1.97-11.01,2.07-18.47,3,.54,4.34.81,6.51,1.36,10.84,6.01-.75,9.05-1.09,14.99-2.12.37,2.38.56,3.56.94,5.94-6.1.88-9.1,1.38-15.18,2.14.84,6.7,1.26,10.05,2.1,16.74Z"/>
        <path class="cls-3" d="m353.61,378.27c-3.32.91-4.99,1.35-8.33,2.19-4.29-5.75-6.99-9.9-11.81-17.19-3.99,1.69-6.01,2.46-10.12,3.83,1.81,7.49,2.74,11.29,3.9,17.43-3.2.64-4.8.94-8.02,1.51-2.48-13.74-5.67-27.34-8.15-41.09,6.33-2.88,9.25-4.89,14.81-9.58,3.86-3.26,6.74-5.08,9.18-4.37,2.44.71,4.47,3.44,6.09,8.32,2.4,7.26,2.2,14.29-1.56,19.25,5.71,8.35,9.01,13.32,14.02,19.68Zm-31.87-17.77c3.47-1.44,5.17-2.25,8.52-4,2.43-1.27,4-2.99,4.7-5.16.7-2.16.61-4.61-.15-7.1-.7-2.29-1.74-3.65-3.14-4.1-1.4-.45-2.97.14-4.85,1.57-3.19,2.42-4.82,3.54-8.2,5.5,1.09,5,1.77,7.78,3.11,13.29Z"/>
        <path class="cls-3" d="m362.61,289.79c6.6,16.79,13.9,33.31,20.97,49.89,3.11,7.32,4.86,12.61,5.41,16.25.55,3.63-.03,6.76-1.69,9.5-1.66,2.74-4.35,4.49-7.83,5.66-3.52,1.18-6.63,1.47-9.35.81s-5-2.12-6.94-4.6c-1.94-2.48-3.76-6.14-5.61-11.21-4.82-13.14-9.84-26.23-14.09-39.58,2.08-2.66,3.1-4.02,5.14-6.8,4.8,14.03,10.32,27.81,15.66,41.64,2.35,6.12,4.43,9.39,6.58,10.48,2.15,1.08,4.24,1.2,6.25.36,2.32-.96,3.82-2.65,4.37-5.31.55-2.66-.46-7.11-3.26-13.84-6.59-15.82-13.43-31.58-19.5-47.62,1.56-2.25,2.33-3.38,3.89-5.62Z"/>
        <path class="cls-3" d="m413.68,357.31c-3.05,1.27-4.58,1.89-7.63,3.11-11.5-27.36-24.17-54.21-35.67-81.57,2.02-2.76,3.04-4.13,5.12-6.79,12.35,28.58,25.79,56.69,38.18,85.25Z"/>
        <path class="cls-3" d="m440.79,345.4c-3.24,1.5-4.86,2.23-8.11,3.69-12.62-27.17-25.55-54.2-38.31-81.31-3.51,3.23-5.2,4.95-8.53,8.51-2.31-5.07-3.34-7.34-4.92-10.9,7.32-7.92,14.47-15.65,23.9-21.16,1.73,3.49,2.9,5.87,5.56,11.27-3.93,2.4-5.82,3.76-9.49,6.68,13.3,27.74,26.65,55.45,39.9,83.22Z"/>
      </g>
    </g>
  </g>
</svg>