<?xml version="1.0" encoding="UTF-8"?>
<svg id="pineapplesvg" xmlns="http://www.w3.org/2000/svg" viewBox="0 0 359 597">
  <defs>
    <style>
      .cls-1 {
        stroke: #ffc950;
      }

      .cls-1, .cls-2, .cls-3, .cls-4 {
        stroke-miterlimit: 10;
        stroke-width: 5px;
      }

      .cls-1, .cls-4 {
        fill: #ffc950;
      }

      .cls-2 {
        fill: none;
      }

      .cls-2, .cls-3, .cls-4 {
        stroke: #ffbc00;
      }

      .cls-3 {
        fill: #a6ff9c;
      }

      #pineapplesvg:hover {
        transition: ease-in-out 0.5s
      }

      #pineapplesvg:hover {
        transform: scale(200%) rotate(360deg);
      }

    </style>
  </defs>
  <g id="leaves">
    <path id="leave-1" class="cls-3" d="m213.52,164S130.02-25,35.02,13c0,0,141.95,105.94,62.48,179.47"/>
    <path id="leave-2" class="cls-3" d="m255.84,195.32S36.02,27,43.02,75c0,0,108.74,57.52,54,119"/>
    <path id="leave-3" class="cls-3" d="m97.49,192.47S196.02,27,289.02,46c0,0-83.65,31.07-51.82,136.03"/>
    <path id="leave-4" class="cls-3" d="m143.8,169.44s74.21-80.43,130.21-70.43c0,0-70.65,35.07-36.82,83.03"/>
  </g>
  <g id="base">
    <path id="base-2" data-name="base" class="cls-4" d="m320.02,454c0,101.9-293,99.9-293-2,0-53.34-1.95-148.28,28-209,27.26-55.27,84.52-79,124-79s92.47,29.67,117,84c27.85,61.69,24,151.82,24,206Z"/>
  </g>
  <g id="texture">
    <path class="cls-4" d="m260.62,199.49S102.99,232.5,28.02,378"/>
    <path id="cross-1" class="cls-4" d="m311.76,299.84S62.55,334.36,27.28,457.18"/>
    <path id="cross-2" class="cls-2" d="m43.1,273.97s233.29,63.75,235.6,234.9"/>
    <path id="cross-3" class="cls-2" d="m76.88,211s197.5,0,243.32,166.5"/>
    <path id="cross-4" class="cls-2" d="m26.99,356.5s121.53,10.87,194.03,168.5"/>
    <path id="cross-5" class="cls-2" d="m320.2,331.18s-204.43,68.17-253.31,175.5"/>
  </g>
  <g id="text-layer">
    <g id="text">
      <g>
        <path class="cls-1" d="m11.32,557.29c-2.99-1.4-4.48-2.11-7.45-3.56,4.52-23.4-2.32-47.54,2.2-70.93,6.29,3.51,9.66,5.76,16.67,10.69,4.99,3.51,8.53,7.61,10.71,12.64,2.18,5.03,3.24,10.15,3.18,15.59-.07,6.21-1.32,10.83-3.91,13.54-2.58,2.71-5.87,3.1-9.83.97-4.22-2.26-6.3-3.38-10.4-5.52.32,12.89.53,19.48-1.18,26.57Zm.8-39.33c3.5,1.98,5.29,3.02,8.91,5.15,2.36,1.39,4.16,1.4,5.39.09,1.23-1.31,1.83-3.64,1.83-6.89,0-2.94-.54-5.72-1.66-8.45-1.12-2.73-3.2-5.12-6.22-7.17-3.37-2.28-5.02-3.37-8.26-5.4-.48,7.69-.28,12.77.01,22.67Z"/>
        <path class="cls-1" d="m52.72,574.2c-3.12-1.09-4.68-1.65-7.79-2.8,3.51-19.49-.13-39.54,3.09-59.08,3.34,2.54,5.02,3.83,8.4,6.37-3.29,18.32-.84,37.12-3.7,55.51Z"/>
        <path class="cls-1" d="m98.79,586.9c-3.1-.62-4.65-.95-7.74-1.65-5.04-11.13-9.27-22.57-13.51-34.03-.23-.63-.6-1.65-1.12-3.08-.23-.63-.58-1.63-1.05-2.99-.94,11.71-1.09,23.61-3.47,35.16-2.54-.73-3.81-1.11-6.35-1.9,2.93-16.38,1.43-33.23,4.73-49.54,3.75,2.67,5.63,3.97,9.35,6.45,3.95,11.27,8.14,22.47,12.66,33.52.11.25.88,2.16,2.24,5.38,1.57-11.25,1.89-18.24,4.13-27.57,2.56,1.3,3.82,1.91,6.32,3-2.55,12.34-3.65,24.91-6.2,37.25Z"/>
        <path class="cls-1" d="m140.86,592.84c-9.68-.81-19.42-2.07-29.01-3.63,2.02-11.74,3.74-23.52,5.76-35.25,10.65,2.5,15.64,2.52,26.1,3.45-.19,2.11-.28,3.16-.47,5.27-7.64-.68-11.46-1.12-19.06-2.21-.55,3.81-.82,5.72-1.37,9.54,6.28.9,9.43,1.29,15.73,1.91-.2,2.05-.31,3.08-.51,5.13-6.4-.64-9.59-1.02-15.96-1.94-.57,3.94-.85,5.91-1.42,9.85,8.26,1.19,12.4,1.67,20.7,2.4-.19,2.2-.29,3.3-.48,5.5Z"/>
        <path class="cls-1" d="m186.45,594.1c-3.46.11-5.2.15-8.66.18-1.47-3.37-2.19-5.06-3.59-8.45-6.76,0-10.14-.08-16.9-.38-1.53,3.32-2.31,4.98-3.9,8.28-2.76-.15-4.14-.24-6.91-.44,5.79-11.38,11.16-22.96,16.09-34.73,3.62.12,5.43.16,9.04.18,4.5,11.96,9.45,23.76,14.82,35.36Zm-14.35-13.4c-2.49-6.36-3.68-9.55-5.96-15.94-2.56,6.29-3.9,9.42-6.68,15.66,5.05.2,7.58.26,12.64.29Z"/>
        <path class="cls-1" d="m203.3,593.18c-3.23.25-4.85.36-8.09.54-.66-11.83-1.31-23.66-1.97-35.49,6.67-.37,10-.64,16.65-1.33,4.74-.49,8.36.09,10.95,1.85,2.58,1.76,4.11,4.03,4.52,6.85.47,3.21-.43,6.01-2.76,8.35-2.33,2.35-5.55,3.77-9.59,4.2-4.31.46-6.46.66-10.78.99.43,5.62.65,8.43,1.08,14.05Zm-1.5-19.53c3.63-.28,5.44-.44,9.06-.81,2.36-.24,4.12-.93,5.24-2.04,1.12-1.11,1.58-2.47,1.38-4.07-.18-1.45-.9-2.62-2.14-3.52-1.24-.9-3.31-1.18-6.23-.89-3.25.33-4.88.47-8.13.72.33,4.25.49,6.37.82,10.62Z"/>
        <path class="cls-1" d="m246.67,587.43c-3.19.61-4.78.89-7.96,1.41-2.19-11.77-3.56-23.67-5.75-35.44,7.13-1.89,11.07-3.47,19.3-7.33,5.86-2.75,10.74-4.3,14.05-3.6,3.3.7,4.97,2.95,4.98,6.73.01,4.31-1.69,8.8-4.65,12.69s-6.54,6.43-10.88,7.85c-4.63,1.51-6.92,2.18-11.4,3.33.72,6.04,1.07,9.07,2.32,14.36Zm-3-20.27c3.91-1.16,5.91-1.83,9.97-3.32,2.65-.97,4.67-2.37,6.06-4.16,1.39-1.8,2.08-3.76,1.98-5.74-.09-1.78-.88-2.94-2.38-3.47-1.5-.53-4.09.13-7.6,1.67-3.91,1.72-5.83,2.49-9.54,3.83.73,4.3.99,6.61,1.52,11.19Z"/>
        <path class="cls-1" d="m308.48,569.5c-8.77,3.41-17.77,6.52-26.78,9.23-1.94-16.36,2.93-32.77.43-49.06,4.14-2.52,6.23-3.83,10.39-6.47,1.44,15.09-1.85,30.49-2.98,45.52,7.63-2.85,11.44-4.39,18.92-7.54-.31,3.79-.35,5.52.02,8.33Z"/>
        <path class="cls-1" d="m344.53,553.74c-8.88,4.39-17.99,8.5-27.16,12.23-1.22-21.99,9.7-42.82,8.97-64.83,9.68-6.26,19.33-12.62,29.44-18.19.45,2.59.4,4.29,0,8.11-7.47,4.13-11.7,6.73-20.61,12.3-.7,6.72-1.67,10.96-3.57,19.39,6.86-3.88,10.17-5.76,16.38-9.11-1.16,4.81-1.81,7.3-2.99,12.12-6.12,3.15-9.35,4.86-15.99,8.36-1.98,8.74-3.02,13.17-3.79,20.18,7.98-3.62,11.89-5.48,19.39-9.1-.46,4.04-.53,5.83-.05,8.54Z"/>
      </g>
    </g>
  </g>
</svg>