<?xml version="1.0" encoding="UTF-8"?>
<svg xmlns="http://www.w3.org/2000/svg" viewBox="0 0 375 357">
  <defs>
    <style>
      .cls-1, .cls-2, .cls-3 {
        stroke-width: 0px;
      }

      .cls-2 {
        fill: #dbffd4;
      }

      .cls-3 {
        fill: #ff9fff;
      }
    </style>
  </defs>
  <g id="fruit">
    <path id="watermellon" class="cls-3" d="m325.58,230.11c-147.17,106-286.83,0-286.83,0L187.75,1.28"/>
    <path id="skin" class="cls-2" d="m60.75,197.11c98.07,90,247,5,247,5l20.5,30.06s-133.06,103.94-289.5-2.06"/>
  </g>
  <g id="text-layer">
    <g id="text">
      <g>
        <path class="cls-3" d="m81.16,278.4c-12.36,20.62-39.77,25.44-53.12,45.12-2.24-1.3-3.37-1.98-5.66-3.41,3.15-15.34,20.98-27.17,31.2-37.54-14.12,8.9-32.48,16.36-43.04,29.66-2.38-1.68-3.6-2.55-6.07-4.38,6.22-21.8,33.73-28.92,39.28-50.78,2.5,1.96,3.72,2.88,6.1,4.6-4.8,15.14-20.71,25.7-31.54,36.49,13.62-7.95,33.73-15.28,42.76-29.13,2.11,1.24,3.15,1.82,5.2,2.9-4.63,15.15-20.34,26.15-30.88,37.22,13.36-8.94,33.21-17.66,41.53-32.31,1.7.68,2.55.99,4.23,1.58Z"/>
        <path class="cls-3" d="m62.97,339.46c-2.29-.79-3.42-1.2-5.67-2.04.28-5.28,1.65-8,5.15-13.44-4.37-1.56-6.52-2.4-10.84-4.27-5.39,4.49-7.71,6.7-9.97,11.03-1.77-.85-2.66-1.29-4.43-2.2,13.75-20.09,41.35-25.92,53.89-47.16,2.33.59,3.49.86,5.84,1.36-3.79,22.71-30.22,33.65-33.97,56.73Zm5.64-23.71c6.93-7.96,14.64-15.88,20.17-24.95-8.53,8.39-18.57,15.09-28.29,22,3.24,1.27,4.85,1.85,8.11,2.95Z"/>
        <path class="cls-3" d="m77.15,343.91c-2.45-.71-3.66-1.06-6.04-1.8,5.24-18.67,27.01-33.29,38.49-48.04-3.04-.53-4.52-.79-7.45-1.35,2.24-3.37,3.11-5.03,3.86-8.27,7.88,1.35,11.91,1.85,20.8,3.4-.63,3.32-1.43,5.06-3.55,8.61-3.31-.6-4.91-.87-8.05-1.41-11.35,15.01-33,30.01-38.06,48.86Z"/>
        <path class="cls-3" d="m116.14,353.54c-9.71-1.73-15.01-3.3-24.04-5.61,6.78-23.76,33.71-35.27,40.49-59.03,8.22,1.56,13.27,3.11,21.68,4.64-.49,3.18-1.18,4.87-3.03,8.34-6.12-1.12-9.69-2.17-15.95-3.48-3.53,6.3-6.5,9.67-12.38,16.4,5.15,1.15,8.03,1.96,13.27,3.03-3.07,3.65-4.7,5.49-7.79,9.14-5.37-1.09-8.27-1.91-13.48-3.14-6.12,6.96-9.27,10.46-13,16.98,6.72,1.68,10.53,2.75,17.48,3.98-1.98,3.64-2.72,5.4-3.23,8.73Z"/>
        <path class="cls-3" d="m152.33,355.63c-2.65.15-3.98.2-6.65.25-1.21-8.82,1.7-14.1,7.34-24.55-3.27-.04-4.93-.1-8.31-.35-5.51,6.53-11.94,15.79-13.54,24.48-2.59-.2-3.9-.33-6.53-.64,5.85-23.62,31.24-36.5,37.09-60.12,5.29.64,7.76.77,12.53.76,3.32,0,5.62,1.26,6.19,4.25.57,2.99-.48,7.09-3.72,12.47-4.81,8-10.89,13.95-16.87,17.15-5.85,11.19-9.1,16.93-7.55,26.32Zm-.42-33.82c2.87.21,4.28.27,7.06.31,2.01.03,4.14-.87,6.33-2.62,2.19-1.76,4.32-4.16,6.19-7.14,1.72-2.73,2.46-4.87,2.41-6.46-.05-1.59-.93-2.35-2.53-2.36-2.71-.01-4.09-.06-6.93-.26-3.43,7.05-6.56,10.9-12.54,18.54Z"/>
        <path class="cls-3" d="m195.25,348.91c-2.58.59-3.86.88-6.42,1.43.5-19.23,15.54-35.98,20.64-54.04-8.75,18.63-25.18,35.81-30.23,55.96-1.3.24-1.96.36-3.26.58-2.19-17.46,11.37-36.43,16.46-52.39-6.78,18.07-24.11,34.12-26.05,53.84-2.03.27-3.04.39-5.07.6,3.03-22.88,24.99-38.02,28.82-60.79,2.86-.47,4.27-.75,7.1-1.39.4,13.55-6.9,26.3-11.88,38.46,8.29-12.34,19.84-26,22.4-41.17,2.92-.83,4.4-1.27,7.44-2.19-1.21,21.99-19.45,39.08-19.94,61.09Z"/>
        <path class="cls-3" d="m229.6,340.48c-9.86,2.42-14.6,3.67-23.89,5.94-.07-21.75,17.02-39.33,17.64-61.08,7.33-2.22,11.21-3.41,19.98-5.64.22,3.19.08,4.89-.5,8.4-6.35,1.63-9.3,2.48-14.93,4.11-1.27,6.43-2.66,9.93-5.42,16.9,4.81-1.32,7.29-2.01,12.48-3.35-1.32,3.73-2.04,5.61-3.37,9.35-5.32,1.35-7.88,2.03-12.88,3.36-2.87,7.21-4.36,10.84-5.73,17.5,6.69-1.69,10.1-2.57,17.18-4.3-.63,3.68-.8,5.46-.56,8.79Z"/>
        <path class="cls-3" d="m263.1,332.51c-10.03,2.42-15,3.53-24.62,5.82-.28-21,12.65-39.57,12.9-60.57,2.42-.55,3.53-.79,5.62-1.23-.01,17.08-6.94,34.21-10.35,50.76,6.68-1.57,10-2.33,16.62-3.9-.2,3.74-.25,5.58-.17,9.12Z"/>
        <path class="cls-3" d="m297.04,323.49c-10.2,3.07-15.33,4.4-25.45,6.93-.51-18.82-.28-37.64-.8-56.45,1.29-.22,1.88-.32,3.01-.52,1.41,15.41,3.2,30.77,4.83,46.15,6.56-1.69,9.82-2.57,16.32-4.52,1.05,3.35,1.5,5.03,2.09,8.41Z"/>
        <path class="cls-3" d="m319.91,316.63c-5.46,2.06-10.29,1.03-15.24-2.95-4.94-3.98-9.2-9.74-13.11-17-3.88-7.21-6.07-13.52-7.01-18.76-.94-5.24-.33-8.14,1.22-8.95,1.57-.81,3.26.85,7.94,4.49,4.68,3.64,12.12,8.1,20.6,13.94,8.9,6.13,14.21,11.85,14.51,17.44.3,5.59-3.59,9.78-8.91,11.79Zm-3.09-7.01c2.5-.95,3.93-3.08,3.5-6.15-.43-3.08-4.21-7.57-11.41-13.49-5.85-4.81-10.63-8.4-13.9-10.95-3.26-2.54-4.98-3.61-6.12-3.06-2.25,1.09-.47,7.51,8,19.26,4.11,5.7,7.64,9.84,10.89,12.3,3.26,2.46,6.21,3.17,9.04,2.09Z"/>
        <path class="cls-3" d="m374.98,285.68c-2.5,1.96-3.77,2.9-6.33,4.73-14.79-8.94-34.88-10.83-51.25-15.32-.81-.25-2.12-.65-3.84-1.24-.77-.26-1.96-.68-3.49-1.28,13.89,7.96,32.9,14.54,42.2,28.23-2.24,1.26-3.37,1.88-5.64,3.07-11.35-19.46-38.74-21.43-50.88-40.42,1.45-1.06,2.22-1.63,3.9-2.91,12.01,10.06,30.31,12.02,45.09,14.97.47.09,4.06.74,10.17,2.04-13.48-5.95-36.82-11.14-44.95-25.02,1.65-1.3,2.53-1.99,4.37-3.45,13.57,20.96,47.08,15.65,60.65,36.62Z"/>
      </g>
    </g>
  </g>
  <g id="seeds">
    <g id="seeds-2" data-name="seeds">
      <ellipse id="seed-1" class="cls-1" cx="106.75" cy="201.61" rx="6.5" ry="9"/>
      <ellipse id="seed-2" class="cls-1" cx="168.75" cy="196.61" rx="6.5" ry="9"/>
      <ellipse id="seed-3" class="cls-1" cx="221.75" cy="146.61" rx="6.5" ry="9"/>
      <ellipse id="seed-4" class="cls-1" cx="155.75" cy="122.61" rx="6.5" ry="9"/>
      <ellipse id="seed-5" class="cls-1" cx="199.75" cy="65.61" rx="6.5" ry="9"/>
    </g>
  </g>
</svg>